<?xml version="1.0" standalone="no"?>
<!DOCTYPE svg PUBLIC "-//W3C//DTD SVG 20010904//EN"
 "http://www.w3.org/TR/2001/REC-SVG-20010904/DTD/svg10.dtd">
<svg version="1.0" xmlns="http://www.w3.org/2000/svg"
 width="100.000000pt" height="100.000000pt" viewBox="0 0 100.000000 100.000000"
 preserveAspectRatio="xMidYMid meet">

<g transform="translate(0.000000,100.000000) scale(0.100000,-0.100000)"
fill="#4e46e5" stroke="none">
<path d="M46 858 c-11 -16 -16 -46 -16 -103 0 -83 15 -125 46 -125 12 0 14
-36 14 -229 0 -216 1 -230 21 -255 l20 -26 369 0 369 0 20 26 c20 25 21 39 21
255 0 193 2 229 14 229 8 0 22 10 30 22 22 31 22 175 0 206 l-15 22 -439 0
-439 0 -15 -22z m302 -100 l-3 -93 -135 0 -135 0 -3 79 c-2 44 -1 85 2 93 4
10 37 13 141 13 l136 0 -3 -92z m272 -3 l0 -95 -120 0 -120 0 0 95 0 95 120 0
120 0 0 -95z m305 0 l0 -90 -135 0 -135 0 -3 93 -3 93 138 -3 138 -3 0 -90z
m-555 -365 l0 -240 -108 0 c-71 0 -112 4 -120 12 -9 9 -12 76 -12 240 l0 228
120 0 120 0 0 -240z m220 0 l0 -240 -90 0 -90 0 0 240 0 240 90 0 90 0 0 -240z
m280 12 c0 -164 -3 -231 -12 -240 -8 -8 -49 -12 -120 -12 l-108 0 0 240 0 240
120 0 120 0 0 -228z"/>
</g>
</svg>
